# xmcd
#
# Track frame offsets:
#	182
#	15407
#	27672
#	41447
#	56312
#	68870
#	83932
#	95887
#	107392
#	123122
#
# Disc length: 1793
#
# Revision: 2
# Processed by: cddbd v1.5.1PL0 Copyright (c) Steve Scherf et al.
# Submitted via: audiograbber 1.83.01
# Normalized: r1:DSETVAR1
#
DISCID=7706ff0a
DTITLE=Various Artist - 25 Years of Soul - 1969
DYEAR=1997
DGENRE=Soul
TTITLE0=Aretha Franklin - Share Your Love With Me
TTITLE1=Clarence Carter - Snatching it back
TTITLE2=The Meters - Cissy Strut
TTITLE3=Booker T and The MG's - Time is Tight
TTITLE4=R.B.Greaves - Take a Letter Maria
TTITLE5=The Moments - I Do
TTITLE6=Archie Bell and The Drells - There's Gonna Be a Showdown
TTITLE7=Mel and Tim - Backfield in Motion
TTITLE8=Joe Tex - Buying a Book
TTITLE9=Otis Redding - Papa's Got a Brand New Bag
EXTD=
EXTT0=
EXTT1=
EXTT2=
EXTT3=
EXTT4=
EXTT5=
EXTT6=
EXTT7=
EXTT8=
EXTT9=
PLAYORDER=
